<svg xmlns="http://www.w3.org/2000/svg"  viewBox="0 0 64 64" width="64px" height="64px"><linearGradient id="a1fdpCySWvNvKlMxo5V8ja" x1="27.5" x2="27.5" y1="7.333" y2="48.752" gradientUnits="userSpaceOnUse" spreadMethod="reflect"><stop offset="0" stop-color="#1a6dff"/><stop offset="1" stop-color="#c822ff"/></linearGradient><path fill="url(#a1fdpCySWvNvKlMxo5V8ja)" d="M52.665,10.741c-0.254-2.003-0.455-3.585-1.708-3.732c-1.137-0.129-1.842,1.129-2.739,3.505 c-1.927,5.112-7.478,9.227-14.202,10.578C32.834,20.402,31.464,20,30,20c-1.708,0-3.289,0.542-4.589,1.458 c-6.088-0.533-10.538-6.952-10.583-7.019L13,11.75v12.479c-0.442,0.709-0.752,1.502-0.898,2.351 c-2.56-1.722-5.547-2.109-7.676-0.722C3.21,26.651,2.413,27.896,2.12,29.46c-0.426,2.275,0.268,4.886,1.905,7.164 c1.94,2.701,4.802,4.277,7.379,4.348l-0.043,0.052c1.725,1.434,4.659,3.421,7.325,4.625c5.004,2.262,9.664,3.385,13.854,3.384 c6.082,0,11.171-2.366,14.878-7.048C53.948,33.737,53.2,14.949,52.665,10.741z M36,28c0,3.309-2.691,6-6,6s-6-2.691-6-6s2.691-6,6-6 S36,24.691,36,28z M14.975,29.376c-0.292-0.407-0.61-0.782-0.94-1.138C14.013,28.055,14,27.872,14,27.688 C14,25.103,16.181,23,18.862,23c1.504,0,2.9,0.674,3.814,1.792C22.244,25.775,22,26.859,22,28c0,0.943,0.172,1.844,0.473,2.685 C21.498,32.158,20.196,33,18.838,33c-0.845,0-1.678-0.339-2.429-0.957C16.07,31.13,15.589,30.23,14.975,29.376z M18.709,21.008 c-1.373,0.03-2.648,0.45-3.709,1.157v-4.364C15.929,18.8,17.187,19.98,18.709,21.008z M5.649,35.457 c-1.3-1.81-1.884-3.914-1.563-5.629c0.132-0.707,0.488-1.679,1.432-2.294c0.551-0.359,1.205-0.528,1.908-0.528 c1.973,0,4.338,1.329,5.925,3.537c1.299,1.809,1.884,3.912,1.563,5.627c-0.132,0.708-0.488,1.68-1.432,2.296 C11.388,39.832,7.801,38.453,5.649,35.457z M45.849,40.745c-5.634,7.118-14.989,8.211-26.34,3.083 c-1.918-0.867-3.984-2.168-5.576-3.337c0.22-0.101,0.435-0.215,0.641-0.349c1.216-0.793,2.014-2.04,2.306-3.604 c0.114-0.609,0.141-1.242,0.098-1.886C17.581,34.871,18.202,35,18.838,35c1.742,0,3.376-0.848,4.66-2.357 C24.95,34.671,27.32,36,30,36c4.411,0,8-3.589,8-8c0-2.04-0.774-3.898-2.035-5.312c6.682-1.784,12.113-6.134,14.124-11.469 c0.178-0.471,0.333-0.849,0.465-1.152c0.053,0.354,0.097,0.699,0.125,0.926C51.106,14.345,51.981,33,45.849,40.745z"/><linearGradient id="a1fdpCySWvNvKlMxo5V8jb" x1="7" x2="7" y1="7.333" y2="48.752" gradientUnits="userSpaceOnUse" spreadMethod="reflect"><stop offset="0" stop-color="#1a6dff"/><stop offset="1" stop-color="#c822ff"/></linearGradient><path fill="url(#a1fdpCySWvNvKlMxo5V8jb)" d="M7 27A3 3.5 0 1 0 7 34A3 3.5 0 1 0 7 27Z"/><linearGradient id="a1fdpCySWvNvKlMxo5V8jc" x1="32" x2="32" y1="7.333" y2="48.752" gradientUnits="userSpaceOnUse" spreadMethod="reflect"><stop offset="0" stop-color="#1a6dff"/><stop offset="1" stop-color="#c822ff"/></linearGradient><path fill="url(#a1fdpCySWvNvKlMxo5V8jc)" d="M32,26c-0.115,0-0.221,0.024-0.333,0.033c0.945,0.16,1.667,0.976,1.667,1.967 c0,1.104-0.896,2-2,2c-1.104,0-2-0.896-2-2c0-0.541,0.217-1.031,0.567-1.391C28.763,27.315,28,28.564,28,30c0,2.209,1.791,4,4,4 s4-1.791,4-4S34.209,26,32,26z"/><linearGradient id="a1fdpCySWvNvKlMxo5V8jd" x1="20.5" x2="20.5" y1="7.333" y2="48.752" gradientUnits="userSpaceOnUse" spreadMethod="reflect"><stop offset="0" stop-color="#1a6dff"/><stop offset="1" stop-color="#c822ff"/></linearGradient><path fill="url(#a1fdpCySWvNvKlMxo5V8jd)" d="M20.5,26c-0.099,0-0.193,0.021-0.291,0.029c0.827,0.14,1.459,0.854,1.459,1.721 c0,0.966-0.784,1.75-1.75,1.75c-0.966,0-1.75-0.784-1.75-1.75c0-0.473,0.19-0.902,0.496-1.217C17.668,27.151,17,28.243,17,29.5 c0,1.933,1.567,3.5,3.5,3.5s3.5-1.567,3.5-3.5S22.433,26,20.5,26z"/><linearGradient id="a1fdpCySWvNvKlMxo5V8je" x1="48.512" x2="48.512" y1="39" y2="56.285" gradientUnits="userSpaceOnUse" spreadMethod="reflect"><stop offset="0" stop-color="#6dc7ff"/><stop offset="1" stop-color="#e6abff"/></linearGradient><path fill="url(#a1fdpCySWvNvKlMxo5V8je)" d="M60.358,46.42c-1.538-1.526-3.694-1.852-5.367-0.812c-0.017,0.01-0.03,0.025-0.047,0.035 c-1.847-1.36-4.682-2.93-8.013-4.347c-2.351-1-4.607-1.78-6.544-2.296l-5.362,1.338c0,0,5.08,3.779,9.59,5.698 c3.165,1.346,6.147,2.284,8.421,2.726c-0.093,0.787-0.003,1.641,0.289,2.509c1.004,2.99,6.775,4.532,7.43,4.698l1.243,0.315 L62,55.002C62.003,53.375,61.894,47.946,60.358,46.42z"/><linearGradient id="a1fdpCySWvNvKlMxo5V8jf" x1="33" x2="33" y1="7.333" y2="48.752" gradientUnits="userSpaceOnUse" spreadMethod="reflect"><stop offset="0" stop-color="#1a6dff"/><stop offset="1" stop-color="#c822ff"/></linearGradient><path fill="url(#a1fdpCySWvNvKlMxo5V8jf)" d="M24,40.003c0,0,15.255,0.983,15.255-2.49c0-1.726-1.113-3.513-1.113-3.513 s4.466,2.368,3.789,5.521c-0.104,0.483-0.315,0.986-0.662,1.505C37.929,46.001,24,40.003,24,40.003z"/></svg>